<!-- https://icons.getbootstrap.com/ -->
<svg xmlns="http://www.w3.org/2000/svg">
  <symbol id="list" viewBox="0 0 16 16">
    <path fill-rule="evenodd" d="M2.5 12a.5.5 0 0 1 .5-.5h10a.5.5 0 0 1 0 1H3a.5.5 0 0 1-.5-.5zm0-4a.5.5 0 0 1 .5-.5h10a.5.5 0 0 1 0 1H3a.5.5 0 0 1-.5-.5zm0-4a.5.5 0 0 1 .5-.5h10a.5.5 0 0 1 0 1H3a.5.5 0 0 1-.5-.5z" />
  </symbol>
  <symbol id="spacecraft" viewBox="0 0 24 24">
    <path d="M19.957 4.035c-.345-.024-.682-.035-1.012-.035-7.167 0-11.248 5.464-12.732 9.861l3.939 3.938c4.524-1.619 9.848-5.549 9.848-12.639 0-.367-.014-.741-.043-1.125zm-9.398 11.815l-2.402-2.402c1.018-2.383 3.91-7.455 10.166-7.767-.21 4.812-3.368 8.276-7.764 10.169zm4.559 1.282c-.456.311-.908.592-1.356.842-.156.742-.552 1.535-1.126 2.21-.001-.48-.135-.964-.369-1.449-.413.187-.805.348-1.179.49.551 1.424-.01 2.476-.763 3.462 1.08-.081 2.214-.61 3.106-1.504.965-.962 1.64-2.352 1.687-4.051zm-9.849-5.392c-.482-.232-.965-.364-1.443-.367.669-.567 1.453-.961 2.188-1.121.262-.461.556-.915.865-1.361-1.699.046-3.09.723-4.054 1.686-.893.893-1.421 2.027-1.503 3.106.986-.753 2.039-1.313 3.463-.762.145-.391.305-.785.484-1.181zm6.448.553c-.326-.325-.326-.853 0-1.178.325-.326.853-.326 1.178 0 .326.326.326.854 0 1.179-.326.325-.853.325-1.178-.001zm4.124-4.125c-.65-.65-1.706-.65-2.356 0-.651.651-.651 1.707 0 2.357.65.651 1.706.651 2.357 0 .65-.65.65-1.706-.001-2.357zm-1.591 1.592c-.228-.228-.228-.598 0-.825.227-.228.598-.228.826 0 .227.227.226.597 0 .825-.228.227-.598.227-.826 0zm-12.609 10.555l-.755-.755 4.341-4.323.755.755-4.341 4.323zm4.148 1.547l-.755-.755 3.03-3.054.756.755-3.031 3.054zm-5.034 2.138l-.755-.755 5.373-5.364.756.755-5.374 5.364zm21.083-14.291c-.188.618-.673 1.102-1.291 1.291.618.188 1.103.672 1.291 1.291.189-.619.673-1.103 1.291-1.291-.618-.188-1.102-.672-1.291-1.291zm-14.655-6.504c-.247.81-.881 1.443-1.69 1.69.81.247 1.443.881 1.69 1.69.248-.809.881-1.443 1.69-1.69-.81-.247-1.442-.88-1.69-1.69zm-1.827-3.205c-.199.649-.706 1.157-1.356 1.355.65.199 1.157.707 1.356 1.355.198-.649.706-1.157 1.354-1.355-.648-.198-1.155-.706-1.354-1.355zm5.387 0c-.316 1.035-1.127 1.846-2.163 2.163 1.036.316 1.847 1.126 2.163 2.163.316-1.036 1.127-1.846 2.162-2.163-1.035-.317-1.845-1.128-2.162-2.163zm11.095 13.64c-.316 1.036-1.127 1.846-2.163 2.163 1.036.316 1.847 1.162 2.163 2.197.316-1.036 1.127-1.881 2.162-2.197-1.035-.317-1.846-1.127-2.162-2.163z"/>
  </symbol>
  <symbol id="target" viewBox="0 0 24 24">
    <path d="M12 4c4.411 0 8 3.589 8 8s-3.589 8-8 8-8-3.589-8-8 3.589-8 8-8zm0-2c-5.523 0-10 4.477-10 10s4.477 10 10 10 10-4.477 10-10-4.477-10-10-10zm0 6c2.206 0 4 1.794 4 4s-1.794 4-4 4-4-1.794-4-4 1.794-4 4-4zm0-2c-3.314 0-6 2.686-6 6s2.686 6 6 6 6-2.686 6-6-2.686-6-6-6zm0 4c-1.105 0-2 .896-2 2s.895 2 2 2 2-.896 2-2-.895-2-2-2z"/>
  </symbol>
  <symbol id="handshake" viewBox="0 0 24 24">
    <path d="M20.516 13.453l3.484-.891-1.932-7.562-3.526.891.196.753c-1.796.24-2.544-.226-4.459-1.226-.498-.257-.972-.418-1.408-.418-.592 0-1.108.268-1.503.714l-.491.552c-1.956-1.525-3.178-.405-4.505.084-.364.135-.793.185-1.087.202l.173-.662-3.526-.89-1.932 7.562 3.484.891.182-.695c.316.06 1.509.291 1.733.347-.649 1.055.01 2.357 1.199 2.495.226.545.741.932 1.34 1.003.225.544.736.928 1.332.997.33.815 1.305 1.267 2.232.863.352.354.841.537 1.356.537.703 0 1.349-.344 1.674-1.012.574-.12 1.052-.498 1.296-1.01.552-.115 1.031-.47 1.285-1.002.759-.154 1.378-.773 1.457-1.602.031-.312-.03-.624-.155-.91.289-.16 1.442-.647 1.886-.833l.215.822zm.686-6.996l1.338 5.24-1.165.298-1.366-5.237 1.193-.301zm-18.577 5.538l-1.165-.298 1.338-5.24 1.193.301-1.366 5.237zm3.766 2.484c-.294-.221-.331-.645-.08-.942l.61-.749c.249-.298.69-.363.986-.14.295.223.33.644.08.944l-.609.747c-.25.299-.693.361-.987.14zm1.336 1c-.296-.224-.337-.636-.086-.936l.616-.754c.25-.3.69-.363.984-.142.295.222.33.646.082.943l-.617.755c-.25.301-.682.356-.979.134zm1.336 1c-.295-.222-.333-.645-.082-.945l.609-.745c.251-.299.69-.364.986-.142.295.223.331.645.08.944l-.608.747c-.25.3-.691.361-.985.141zm2.93.108l-.61.75c-.251.302-.691.363-.986.142-.295-.222-.331-.645-.082-.943l.612-.751c.252-.298.693-.362.987-.139.296.221.332.644.079.941zm1.28 1.11c-.12.092-.266.138-.415.138-.16 0-.315-.069-.448-.176l.358-.441c.159-.187.269-.412.332-.65l.24.212c.251.285.218.694-.067.917zm3.873-3.017c-.289.222-.719.168-.967-.114l-1.944-1.669c-.16-.138-.37.107-.208.242l1.896 1.628c.248.285.217.696-.068.916-.276.218-.712.181-.969-.114l-1.491-1.308c-.161-.139-.37.102-.213.241l1.457 1.279c.249.285.211.686-.075.909-.28.218-.708.184-.96-.106l-.45-.402-.002-.225c-.089-.78-.711-1.352-1.449-1.434-.224-.547-.737-.93-1.335-.998-.218-.535-.726-.93-1.334-1-.397-.975-1.636-1.334-2.549-.679-.425-.133-1.852-.45-2.434-.564l.836-3.204c.783-.037 1.694-.132 2.902-.705.864-.411 1.278-.599 2.067-.013-.507.507-1.027.955-1.562 1.268-.48.28-.688.837-.531 1.419.181.668.856 1.343 1.96 1.343s2.924-1.014 3.279-1.502c1.472 1.391 2.902 2.684 4.143 3.796.35.39.285.776.001.996zm.526-2.537c-.837-.753-2.728-2.463-3.407-3.143-.289-.288-.691-.619-1.244-.619-.49 0-.878.267-1.128.468-.573.462-2.019 1.378-2.592.92 1.161-.754 2.208-1.943 3.192-3.063.24-.273.587-.219 1.1.044 2.153 1.125 3.007 1.666 5.538 1.394l.779 2.987c-.5.199-1.823.78-2.238 1.012z"/>
  </symbol>
  <symbol id="instagram" viewBox="0 0 24 24">
    <path d="M12 2.163c3.204 0 3.584.012 4.85.07 3.252.148 4.771 1.691 4.919 4.919.058 1.265.069 1.645.069 4.849 0 3.205-.012 3.584-.069 4.849-.149 3.225-1.664 4.771-4.919 4.919-1.266.058-1.644.07-4.85.07-3.204 0-3.584-.012-4.849-.07-3.26-.149-4.771-1.699-4.919-4.92-.058-1.265-.07-1.644-.07-4.849 0-3.204.013-3.583.07-4.849.149-3.227 1.664-4.771 4.919-4.919 1.266-.057 1.645-.069 4.849-.069zm0-2.163c-3.259 0-3.667.014-4.947.072-4.358.2-6.78 2.618-6.98 6.98-.059 1.281-.073 1.689-.073 4.948 0 3.259.014 3.668.072 4.948.2 4.358 2.618 6.78 6.98 6.98 1.281.058 1.689.072 4.948.072 3.259 0 3.668-.014 4.948-.072 4.354-.2 6.782-2.618 6.979-6.98.059-1.28.073-1.689.073-4.948 0-3.259-.014-3.667-.072-4.947-.196-4.354-2.617-6.78-6.979-6.98-1.281-.059-1.69-.073-4.949-.073zm0 5.838c-3.403 0-6.162 2.759-6.162 6.162s2.759 6.163 6.162 6.163 6.162-2.759 6.162-6.163c0-3.403-2.759-6.162-6.162-6.162zm0 10.162c-2.209 0-4-1.79-4-4 0-2.209 1.791-4 4-4s4 1.791 4 4c0 2.21-1.791 4-4 4zm6.406-11.845c-.796 0-1.441.645-1.441 1.44s.645 1.44 1.441 1.44c.795 0 1.439-.645 1.439-1.44s-.644-1.44-1.439-1.44z"/>
  </symbol>
  <symbol id="linkedin" viewBox="0 0 24 24">
    <path d="M19 0h-14c-2.761 0-5 2.239-5 5v14c0 2.761 2.239 5 5 5h14c2.762 0 5-2.239 5-5v-14c0-2.761-2.238-5-5-5zm-11 19h-3v-11h3v11zm-1.5-12.268c-.966 0-1.75-.79-1.75-1.764s.784-1.764 1.75-1.764 1.75.79 1.75 1.764-.783 1.764-1.75 1.764zm13.5 12.268h-3v-5.604c0-3.368-4-3.113-4 0v5.604h-3v-11h3v1.765c1.396-2.586 7-2.777 7 2.476v6.759z"/>
  </symbol>
  <symbol id="chevron-double-down" viewBox="0 0 24 24">
    <path fill-rule="evenodd" d="M1.646 6.646a.5.5 0 0 1 .708 0L8 12.293l5.646-5.647a.5.5 0 0 1 .708.708l-6 6a.5.5 0 0 1-.708 0l-6-6a.5.5 0 0 1 0-.708z"/>
    <path fill-rule="evenodd" d="M1.646 2.646a.5.5 0 0 1 .708 0L8 8.293l5.646-5.647a.5.5 0 0 1 .708.708l-6 6a.5.5 0 0 1-.708 0l-6-6a.5.5 0 0 1 0-.708z"/>
  </symbol>
</svg>